<mxfile host="app.diagrams.net" modified="2023-03-13T13:02:52.848Z" agent="5.0 (Windows NT 10.0; Win64; x64) AppleWebKit/537.36 (KHTML, like Gecko) Chrome/110.0.0.0 Safari/537.36" etag="XfKoc8Xa0girCTEK4hdH" version="20.4.1" type="github">
  <diagram id="C5RBs43oDa-KdzZeNtuy" name="Page-1">
    <mxGraphModel dx="1697" dy="861" grid="1" gridSize="10" guides="1" tooltips="1" connect="1" arrows="1" fold="1" page="1" pageScale="1" pageWidth="827" pageHeight="1169" math="0" shadow="0">
      <root>
        <mxCell id="WIyWlLk6GJQsqaUBKTNV-0" />
        <mxCell id="WIyWlLk6GJQsqaUBKTNV-1" parent="WIyWlLk6GJQsqaUBKTNV-0" />
        <mxCell id="Y4pamUnvSkNG5i5OnJBw-0" value="&lt;div style=&quot;text-align: left;&quot;&gt;&lt;span style=&quot;background-color: initial;&quot;&gt;«interface»&lt;/span&gt;&lt;/div&gt;&lt;b&gt;&lt;div style=&quot;text-align: left;&quot;&gt;&lt;b style=&quot;background-color: initial;&quot;&gt;Item&lt;/b&gt;&lt;/div&gt;&lt;div style=&quot;text-align: left;&quot;&gt;&lt;b style=&quot;background-color: initial;&quot;&gt;---------------------&lt;/b&gt;&lt;/div&gt;&lt;div style=&quot;text-align: left;&quot;&gt;&lt;b style=&quot;background-color: initial;&quot;&gt;int ID（）&lt;/b&gt;&lt;/div&gt;&lt;div style=&quot;text-align: left;&quot;&gt;&lt;b style=&quot;background-color: initial;&quot;&gt;enum Type（）&lt;/b&gt;&lt;/div&gt;&lt;/b&gt;" style="html=1;" vertex="1" parent="WIyWlLk6GJQsqaUBKTNV-1">
          <mxGeometry x="354" y="80" width="110" height="80" as="geometry" />
        </mxCell>
        <mxCell id="Y4pamUnvSkNG5i5OnJBw-5" value="AbsItem" style="swimlane;fontStyle=1;align=center;verticalAlign=top;childLayout=stackLayout;horizontal=1;startSize=26;horizontalStack=0;resizeParent=1;resizeParentMax=0;resizeLast=0;collapsible=1;marginBottom=0;" vertex="1" parent="WIyWlLk6GJQsqaUBKTNV-1">
          <mxGeometry x="334" y="250" width="160" height="126" as="geometry" />
        </mxCell>
        <mxCell id="Y4pamUnvSkNG5i5OnJBw-11" value="+ mID:int" style="text;strokeColor=none;fillColor=none;align=left;verticalAlign=top;spacingLeft=4;spacingRight=4;overflow=hidden;rotatable=0;points=[[0,0.5],[1,0.5]];portConstraint=eastwest;" vertex="1" parent="Y4pamUnvSkNG5i5OnJBw-5">
          <mxGeometry y="26" width="160" height="26" as="geometry" />
        </mxCell>
        <mxCell id="Y4pamUnvSkNG5i5OnJBw-6" value="+ mType: type&#xa;&#xa;&#xa;&#xa;&#xa;&#xa;&#xa;&#xa;" style="text;strokeColor=none;fillColor=none;align=left;verticalAlign=top;spacingLeft=4;spacingRight=4;overflow=hidden;rotatable=0;points=[[0,0.5],[1,0.5]];portConstraint=eastwest;" vertex="1" parent="Y4pamUnvSkNG5i5OnJBw-5">
          <mxGeometry y="52" width="160" height="26" as="geometry" />
        </mxCell>
        <mxCell id="Y4pamUnvSkNG5i5OnJBw-7" value="" style="line;strokeWidth=1;fillColor=none;align=left;verticalAlign=middle;spacingTop=-1;spacingLeft=3;spacingRight=3;rotatable=0;labelPosition=right;points=[];portConstraint=eastwest;strokeColor=inherit;" vertex="1" parent="Y4pamUnvSkNG5i5OnJBw-5">
          <mxGeometry y="78" width="160" height="8" as="geometry" />
        </mxCell>
        <mxCell id="Y4pamUnvSkNG5i5OnJBw-8" value="+ UseItem: void" style="text;strokeColor=none;fillColor=none;align=left;verticalAlign=top;spacingLeft=4;spacingRight=4;overflow=hidden;rotatable=0;points=[[0,0.5],[1,0.5]];portConstraint=eastwest;" vertex="1" parent="Y4pamUnvSkNG5i5OnJBw-5">
          <mxGeometry y="86" width="160" height="40" as="geometry" />
        </mxCell>
        <mxCell id="Y4pamUnvSkNG5i5OnJBw-9" value="" style="endArrow=block;endSize=10;endFill=0;shadow=0;strokeWidth=1;rounded=0;edgeStyle=elbowEdgeStyle;elbow=vertical;entryX=0.5;entryY=1;entryDx=0;entryDy=0;" edge="1" parent="WIyWlLk6GJQsqaUBKTNV-1" target="Y4pamUnvSkNG5i5OnJBw-0">
          <mxGeometry width="160" relative="1" as="geometry">
            <mxPoint x="409" y="250" as="sourcePoint" />
            <mxPoint x="554" y="688" as="targetPoint" />
          </mxGeometry>
        </mxCell>
        <mxCell id="Y4pamUnvSkNG5i5OnJBw-12" value="ItemService" style="swimlane;fontStyle=1;align=center;verticalAlign=top;childLayout=stackLayout;horizontal=1;startSize=26;horizontalStack=0;resizeParent=1;resizeParentMax=0;resizeLast=0;collapsible=1;marginBottom=0;" vertex="1" parent="WIyWlLk6GJQsqaUBKTNV-1">
          <mxGeometry x="38" y="64" width="222" height="112" as="geometry" />
        </mxCell>
        <mxCell id="Y4pamUnvSkNG5i5OnJBw-13" value="+ mDictItem: Dictionary&lt;int,Item&gt;" style="text;strokeColor=none;fillColor=none;align=left;verticalAlign=top;spacingLeft=4;spacingRight=4;overflow=hidden;rotatable=0;points=[[0,0.5],[1,0.5]];portConstraint=eastwest;" vertex="1" parent="Y4pamUnvSkNG5i5OnJBw-12">
          <mxGeometry y="26" width="222" height="26" as="geometry" />
        </mxCell>
        <mxCell id="Y4pamUnvSkNG5i5OnJBw-14" value="" style="line;strokeWidth=1;fillColor=none;align=left;verticalAlign=middle;spacingTop=-1;spacingLeft=3;spacingRight=3;rotatable=0;labelPosition=right;points=[];portConstraint=eastwest;strokeColor=inherit;" vertex="1" parent="Y4pamUnvSkNG5i5OnJBw-12">
          <mxGeometry y="52" width="222" height="8" as="geometry" />
        </mxCell>
        <mxCell id="Y4pamUnvSkNG5i5OnJBw-16" value="+ Register(int ItemId)" style="text;strokeColor=none;fillColor=none;align=left;verticalAlign=top;spacingLeft=4;spacingRight=4;overflow=hidden;rotatable=0;points=[[0,0.5],[1,0.5]];portConstraint=eastwest;" vertex="1" parent="Y4pamUnvSkNG5i5OnJBw-12">
          <mxGeometry y="60" width="222" height="26" as="geometry" />
        </mxCell>
        <mxCell id="Y4pamUnvSkNG5i5OnJBw-15" value="+ UnRegister(int ItemId):" style="text;strokeColor=none;fillColor=none;align=left;verticalAlign=top;spacingLeft=4;spacingRight=4;overflow=hidden;rotatable=0;points=[[0,0.5],[1,0.5]];portConstraint=eastwest;" vertex="1" parent="Y4pamUnvSkNG5i5OnJBw-12">
          <mxGeometry y="86" width="222" height="26" as="geometry" />
        </mxCell>
        <mxCell id="Y4pamUnvSkNG5i5OnJBw-18" value="" style="endArrow=open;endFill=1;endSize=12;html=1;rounded=0;exitX=1;exitY=0.5;exitDx=0;exitDy=0;entryX=0;entryY=0.25;entryDx=0;entryDy=0;" edge="1" parent="WIyWlLk6GJQsqaUBKTNV-1" source="Y4pamUnvSkNG5i5OnJBw-13" target="Y4pamUnvSkNG5i5OnJBw-0">
          <mxGeometry width="160" relative="1" as="geometry">
            <mxPoint x="70" y="320" as="sourcePoint" />
            <mxPoint x="230" y="320" as="targetPoint" />
          </mxGeometry>
        </mxCell>
        <mxCell id="Y4pamUnvSkNG5i5OnJBw-19" value="JumpSceneItem" style="swimlane;fontStyle=1;align=center;verticalAlign=top;childLayout=stackLayout;horizontal=1;startSize=26;horizontalStack=0;resizeParent=1;resizeParentMax=0;resizeLast=0;collapsible=1;marginBottom=0;" vertex="1" parent="WIyWlLk6GJQsqaUBKTNV-1">
          <mxGeometry x="120" y="480" width="160" height="86" as="geometry" />
        </mxCell>
        <mxCell id="Y4pamUnvSkNG5i5OnJBw-20" value="+ field: type" style="text;strokeColor=none;fillColor=none;align=left;verticalAlign=top;spacingLeft=4;spacingRight=4;overflow=hidden;rotatable=0;points=[[0,0.5],[1,0.5]];portConstraint=eastwest;" vertex="1" parent="Y4pamUnvSkNG5i5OnJBw-19">
          <mxGeometry y="26" width="160" height="26" as="geometry" />
        </mxCell>
        <mxCell id="Y4pamUnvSkNG5i5OnJBw-21" value="" style="line;strokeWidth=1;fillColor=none;align=left;verticalAlign=middle;spacingTop=-1;spacingLeft=3;spacingRight=3;rotatable=0;labelPosition=right;points=[];portConstraint=eastwest;strokeColor=inherit;" vertex="1" parent="Y4pamUnvSkNG5i5OnJBw-19">
          <mxGeometry y="52" width="160" height="8" as="geometry" />
        </mxCell>
        <mxCell id="Y4pamUnvSkNG5i5OnJBw-22" value="+ method(type): type" style="text;strokeColor=none;fillColor=none;align=left;verticalAlign=top;spacingLeft=4;spacingRight=4;overflow=hidden;rotatable=0;points=[[0,0.5],[1,0.5]];portConstraint=eastwest;" vertex="1" parent="Y4pamUnvSkNG5i5OnJBw-19">
          <mxGeometry y="60" width="160" height="26" as="geometry" />
        </mxCell>
        <mxCell id="Y4pamUnvSkNG5i5OnJBw-23" value="PrevieModelItem" style="swimlane;fontStyle=1;align=center;verticalAlign=top;childLayout=stackLayout;horizontal=1;startSize=26;horizontalStack=0;resizeParent=1;resizeParentMax=0;resizeLast=0;collapsible=1;marginBottom=0;" vertex="1" parent="WIyWlLk6GJQsqaUBKTNV-1">
          <mxGeometry x="400" y="476" width="160" height="86" as="geometry" />
        </mxCell>
        <mxCell id="Y4pamUnvSkNG5i5OnJBw-24" value="+ field: type" style="text;strokeColor=none;fillColor=none;align=left;verticalAlign=top;spacingLeft=4;spacingRight=4;overflow=hidden;rotatable=0;points=[[0,0.5],[1,0.5]];portConstraint=eastwest;" vertex="1" parent="Y4pamUnvSkNG5i5OnJBw-23">
          <mxGeometry y="26" width="160" height="26" as="geometry" />
        </mxCell>
        <mxCell id="Y4pamUnvSkNG5i5OnJBw-25" value="" style="line;strokeWidth=1;fillColor=none;align=left;verticalAlign=middle;spacingTop=-1;spacingLeft=3;spacingRight=3;rotatable=0;labelPosition=right;points=[];portConstraint=eastwest;strokeColor=inherit;" vertex="1" parent="Y4pamUnvSkNG5i5OnJBw-23">
          <mxGeometry y="52" width="160" height="8" as="geometry" />
        </mxCell>
        <mxCell id="Y4pamUnvSkNG5i5OnJBw-26" value="+ method(type): type" style="text;strokeColor=none;fillColor=none;align=left;verticalAlign=top;spacingLeft=4;spacingRight=4;overflow=hidden;rotatable=0;points=[[0,0.5],[1,0.5]];portConstraint=eastwest;" vertex="1" parent="Y4pamUnvSkNG5i5OnJBw-23">
          <mxGeometry y="60" width="160" height="26" as="geometry" />
        </mxCell>
        <mxCell id="Y4pamUnvSkNG5i5OnJBw-27" value="" style="endArrow=block;endSize=10;endFill=0;shadow=0;strokeWidth=1;rounded=0;edgeStyle=elbowEdgeStyle;elbow=vertical;exitX=0.5;exitY=0;exitDx=0;exitDy=0;" edge="1" parent="WIyWlLk6GJQsqaUBKTNV-1" source="Y4pamUnvSkNG5i5OnJBw-19">
          <mxGeometry width="160" relative="1" as="geometry">
            <mxPoint x="419" y="260" as="sourcePoint" />
            <mxPoint x="414" y="380" as="targetPoint" />
          </mxGeometry>
        </mxCell>
        <mxCell id="Y4pamUnvSkNG5i5OnJBw-28" value="" style="endArrow=block;endSize=10;endFill=0;shadow=0;strokeWidth=1;rounded=0;edgeStyle=elbowEdgeStyle;elbow=vertical;" edge="1" parent="WIyWlLk6GJQsqaUBKTNV-1" target="Y4pamUnvSkNG5i5OnJBw-8">
          <mxGeometry width="160" relative="1" as="geometry">
            <mxPoint x="480" y="470" as="sourcePoint" />
            <mxPoint x="420" y="380" as="targetPoint" />
          </mxGeometry>
        </mxCell>
      </root>
    </mxGraphModel>
  </diagram>
</mxfile>
